#!OML:ASF F:\VICON\USERDATA\INSTALL\rory3\rory3.ASF
:FULLY-SPECIFIED
:DEGREES
2653
root -14.6553 17.914 -0.45982 119.626 83.3501 100.56
lowerback 11.9846 -0.851843 -1.44657
upperback 7.22335 -0.792547 5.10816
thorax 0.965413 -0.3723 6.2685
lowerneck -8.54999 -8.14699 -9.33786
upperneck 34.7626 -10.0705 5.62051
head 14.1088 -4.41655 2.52348
rclavicle -1.59028e-015 -1.11319e-014
rhumerus 3.95235 -40.9201 -67.314
rradius 35.8182
rwrist 5.58881
rhand -41.9498 -16.6001
rfingers 7.12502
rthumb -14.8468 -46.0482
lclavicle -1.59028e-015 -1.11319e-014
lhumerus -8.82169 -61.6099 99.2229
lradius 74.0036
lwrist 68.1753
lhand -4.31262 62.3784
lfingers 7.12502
lthumb 21.4537 -2251.21
rfemur -35.8511 -8.84498 15.4995
rtibia 38.6472
rfoot -20.3181 -6.10183
rtoes 7.0756
lfemur -34.208 -2.58612 -21.3021
ltibia 21.9953
lfoot -0.778776 1.80847
ltoes -13.8936
2654
root -14.667 17.9147 -0.466567 116.854 83.1141 97.7362
lowerback 11.8368 -0.852066 -1.71342
upperback 7.15162 -0.821108 5.27534
thorax 0.984174 -0.399773 6.60278
lowerneck -8.40298 -8.1269 -9.72133
upperneck 34.6783 -9.98436 5.67058
head 14.0619 -4.42561 2.62588
rclavicle -1.43125e-014 -5.725e-014
rhumerus 3.73221 -39.303 -67.8253
rradius 36.0441
rwrist 5.15253
rhand -41.6031 -16.1116
rfingers 7.12502
rthumb -14.5128 -45.5841
lclavicle -1.43125e-014 -5.725e-014
lhumerus -9.35563 -60.2381 99.3466
lradius 73.3074
lwrist 67.1916
lhand -1.69303 60.7586
lfingers 7.12502
lthumb 23.9678 -2430.72
rfemur -36.008 -8.84514 15.1526
rtibia 38.718
rfoot -20.2977 -5.91833
rtoes 7.43411
lfemur -34.3881 -2.52483 -21.4767
ltibia 22.2154
lfoot -0.65566 0.948556
ltoes -15.4071
2655
root -14.6754 17.9167 -0.478268 114.436 83.0432 95.2112
lowerback 11.5967 -0.782446 -1.63287
upperback 7.06737 -0.728299 5.3765
thorax 1.01329 -0.354591 6.65051
lowerneck -8.38129 -8.17923 -9.74141
upperneck 34.7345 -10.0193 5.56745
head 14.0819 -4.45192 2.58394
rclavicle -4.77083e-015 -7.15625e-014
rhumerus 3.43603 -38.0847 -68.3749
rradius 36.1497
rwrist 5.12606
rhand -40.9309 -15.8789
rfingers 7.12502
rthumb -13.8651 -45.3967
lclavicle -4.77083e-015 -7.15625e-014
lhumerus -10.3292 -59.6835 99.6672
lradius 73.2185
lwrist 69.7815
lhand -4.583 60.2674
lfingers 7.12502
lthumb 21.194 -2430.87
rfemur -36.2165 -8.66372 14.9468
rtibia 38.7831
rfoot -20.335 -5.81599
rtoes 8.52682
lfemur -34.641 -2.48172 -21.4362
ltibia 22.4147
lfoot -0.534278 0.115948
ltoes -15.4905
2656
root -14.6839 17.9227 -0.494888 113.183 82.9053 93.9688
lowerback 11.4471 -0.769479 -1.3938
upperback 7.02746 -0.690088 5.46335
thorax 1.04359 -0.32975 6.59888
lowerneck -8.30109 -8.25868 -9.75392
upperneck 34.6763 -10.076 5.39013
head 14.0333 -4.49916 2.50684
rclavicle 3.18055e-015 1.74931e-014
rhumerus 3.248 -37.0372 -69.0576
rradius 36.1324
rwrist 5.44706
rhand -39.8734 -15.8727
rfingers 7.12502
rthumb -12.8457 -45.4574
lclavicle 3.18055e-015 1.74931e-014
lhumerus -10.9283 -58.7783 99.716
lradius 72.2862
lwrist 69.4045
lhand -4.44097 61.3623
lfingers 7.12502
lthumb 21.3305 -2610.21
rfemur -36.2396 -8.46104 14.638
rtibia 38.8074
rfoot -20.3805 -5.87912
rtoes 9.01914
lfemur -34.8208 -2.92339 -21.2528
ltibia 22.678
lfoot -0.429217 -0.397172
ltoes -15.0092
2657
root -14.6924 17.9243 -0.512137 111.571 82.6279 92.6538
lowerback 11.634 -0.73118 -1.34849
upperback 7.0751 -0.623244 5.574
thorax 0.986178 -0.292917 6.68835
lowerneck -8.21379 -8.40608 -9.85949
upperneck 34.5164 -10.2258 5.24305
head 13.9559 -4.59736 2.44111
rclavicle -2.54444e-014 -2.8625e-014
rhumerus 3.18793 -35.9334 -69.744
rradius 35.9721
rwrist 5.94731
rhand -38.5642 -15.7327
rfingers 7.12502
rthumb -11.5834 -45.3926
lclavicle -2.54444e-014 -2.8625e-014
lhumerus -11.4037 -57.662 99.7094
lradius 71.7514
lwrist 69.44
lhand -5.64057 61.6942
lfingers 7.12502
lthumb 20.1778 -2610.67
rfemur -35.9049 -8.26047 14.1242
rtibia 38.7629
rfoot -20.4645 -5.9347
rtoes 9.81367
lfemur -34.7145 -3.48021 -21.2121
ltibia 23.0075
lfoot -0.239345 -0.829887
ltoes -15.7249
2658
root -14.6997 17.9267 -0.531557 109.588 82.4133 91.1736
lowerback 12.1065 -0.659012 -1.24927
upperback 7.1574 -0.493998 5.71556
thorax 0.802944 -0.218715 6.77775
lowerneck -8.08998 -8.55905 -10.0111
upperneck 34.3222 -10.3843 5.12186
head 13.8618 -4.7027 2.39359
rclavicle -1.27222e-014 3.97569e-014
rhumerus 3.09158 -34.6541 -70.4242
rradius 35.7779
rwrist 6.07051
rhand -37.8589 -15.3065
rfingers 7.12502
rthumb -10.9032 -45.0034
lclavicle -1.27222e-014 3.97569e-014
lhumerus -11.9981 -56.9144 99.819
lradius 70.7408
lwrist 69.2188
lhand -7.94171 61.5466
lfingers 7.12502
lthumb 17.9649 -2610.74
rfemur -35.3404 -8.10456 13.6924
rtibia 38.6715
rfoot -20.4166 -5.9878
rtoes 10.0503
lfemur -34.4152 -3.68632 -21.216
ltibia 23.3591
lfoot -0.0952948 -1.55476
ltoes -15.3886
2659
root -14.7076 17.9379 -0.552067 108.387 82.3688 90.4759
lowerback 12.5414 -0.635351 -0.914384
upperback 7.22709 -0.400637 5.88634
thorax 0.628192 -0.155024 6.76471
lowerneck -7.97978 -8.67164 -10.2469
upperneck 34.3052 -10.495 5.1138
head 13.861 -4.77885 2.41602
rclavicle 2.22639e-014 -3.33958e-014
rhumerus 2.85772 -32.9959 -71.0762
rradius 35.6201
rwrist 5.67305
rhand -36.797 -14.9337
rfingers 7.12502
rthumb -9.87876 -44.682
lclavicle 2.22639e-014 -3.33958e-014
lhumerus -12.4049 -55.5068 99.7844
lradius 69.942
lwrist 68.4582
lhand -8.32164 60.926
lfingers 7.12502
lthumb 17.5993 -2610.15
rfemur -34.7404 -7.83196 13.4259
rtibia 38.5651
rfoot -20.4815 -6.02839
rtoes 10.7074
lfemur -34.133 -4.14653 -20.8477
ltibia 23.7002
lfoot 0.118175 -2.03456
ltoes -12.9879
2660
root -14.7167 17.9469 -0.575697 107.426 82.2905 89.7902
lowerback 12.7234 -0.62837 -0.566126
upperback 7.2282 -0.33812 6.02402
thorax 0.520699 -0.109759 6.70712
lowerneck -7.75619 -8.77543 -10.4262
upperneck 34.1715 -10.6157 5.10295
head 13.7791 -4.85726 2.4292
rclavicle -3.18055e-015 -1.90833e-014
rhumerus 2.55698 -31.1113 -71.6675
rradius 35.3011
rwrist 5.34461
rhand -35.722 -14.5386
rfingers 7.12502
rthumb -8.84157 -44.3333
lclavicle -3.18055e-015 -1.90833e-014
lhumerus -12.9535 -54.1741 99.8121
lradius 69.0946
lwrist 68.4124
lhand -8.71812 60.7443
lfingers 7.12502
lthumb 17.2178 -2610
rfemur -34.4081 -7.52565 13.1202
rtibia 38.4748
rfoot -20.5728 -6.16809
rtoes 11.1321
lfemur -34.0965 -4.86067 -20.4154
ltibia 24.0316
lfoot 0.425974 -2.36585
ltoes -11.5179
2661
root -14.7243 17.9505 -0.591935 105.633 82.023 88.2639
lowerback 12.8707 -0.4928 -0.51271
upperback 7.29485 -0.143679 6.08693
thorax 0.488702 -0.00916368 6.72253
lowerneck -7.70636 -8.94863 -10.419
upperneck 34.0428 -10.8645 5.08602
head 13.7351 -4.96599 2.38186
rclavicle -4.77083e-015 -7.31528e-014
rhumerus 2.37458 -29.4832 -72.3772
rradius 34.8465
rwrist 5.31889
rhand -37.1115 -14.3983
rfingers 7.12502
rthumb -10.1822 -44.1319
lclavicle -4.77083e-015 -7.31528e-014
lhumerus -13.3279 -52.9486 99.6442
lradius 68.0465
lwrist 67.841
lhand -8.22695 60.1295
lfingers 7.12502
lthumb 17.6905 -2430.66
rfemur -34.0998 -7.07848 12.5976
rtibia 38.4117
rfoot -20.7056 -6.39167
rtoes 11.293
lfemur -34.0318 -5.01251 -20.4717
ltibia 24.3528
lfoot 0.754124 -3.3841
ltoes -12.5074
2662
root -14.7287 17.9519 -0.609343 103.687 81.6939 86.4642
lowerback 12.8288 -0.343416 -0.632071
upperback 7.37949 0.0434165 6.19478
thorax 0.580405 0.0784284 6.88546
lowerneck -7.81188 -9.11787 -10.2658
upperneck 33.9918 -11.0451 4.81571
head 13.7224 -5.05366 2.2149
rclavicle 4.29375e-014 7.95139e-014
rhumerus 2.44686 -27.6291 -73.1609
rradius 34.1984
rwrist 5.16617
rhand -34.9834 -14.2906
rfingers 7.12502
rthumb -8.12874 -44.1143
lclavicle 4.29375e-014 7.95139e-014
lhumerus -13.6145 -51.5559 99.4298
lradius 66.922
lwrist 67.104
lhand -7.76497 59.6864
lfingers 7.12502
lthumb 18.135 -2431.14
rfemur -33.9599 -6.66886 12.0227
rtibia 38.4072
rfoot -20.8681 -6.4984
rtoes 11.3016
lfemur -34.0844 -4.93044 -20.7115
ltibia 24.6575
lfoot 1.01942 -4.52629
ltoes -13.4842
